# xmcd
#
# Track frame offsets:
#	150
#	11767
#	29442
#	42980
#	58740
#	83077
#	101630
#	122785
#
# Disc length: 1873 seconds
#
# Revision: 1
# Processed by: cddbd v1.4PL0 Copyright (c) Steve Scherf et al.
# Submitted via: EasyCDDAExtractor 5.0.6
#
DISCID=65074f08
DTITLE=Various Artist - OKeh Sampler
DYEAR=1995
DGENRE=Blues
TTITLE0=G. Love and Special Sauce - Cold Beverage
TTITLE1=G. Love and Special Sauce - Baby's Got Sauce
TTITLE2=Keb' Mo' - Every Morning
TTITLE3=Keb' Mo' - She Just Wants To Dance
TTITLE4=Little Axe - Ride On
TTITLE5=Little Axe - Another Sinful Day
TTITLE6=Popa Chubby - Sweet Goddess Of Love And Beer
TTITLE7=Popa Chubby - Healing In Her Hands
EXTD=
EXTT0=
EXTT1=
EXTT2=
EXTT3=
EXTT4=
EXTT5=
EXTT6=
EXTT7=
PLAYORDER=
